SplineFontDB: 3.2
FontName: MFEKSans-Regular
FullName: MFEK Sans Regular
FamilyName: MFEK Sans
Weight: Regular
Copyright: 
Version: 0.1
ItalicAngle: 0
UnderlinePosition: -200
UnderlineWidth: 100
Ascent: 1600
Descent: 400
InvalidEm: 0
LayerCount: 2
Layer: 0 0 "Back" 1
Layer: 1 0 "Fore" 0
XUID: [1021 31 -699969567 16487490]
FSType: 0
OS2Version: 0
OS2_WeightWidthSlopeOnly: 0
OS2_UseTypoMetrics: 1
CreationTime: 1460762150
ModificationTime: 1673955741
PfmFamily: 33
TTFWeight: 400
TTFWidth: 5
LineGap: 0
VLineGap: 0
OS2TypoAscent: 2500
OS2TypoAOffset: 0
OS2TypoDescent: -850
OS2TypoDOffset: 0
OS2TypoLinegap: 0
OS2WinAscent: 2500
OS2WinAOffset: 0
OS2WinDescent: 850
OS2WinDOffset: 0
HheadAscent: 2500
HheadAOffset: 0
HheadDescent: -850
HheadDOffset: 0
OS2CapHeight: 1500
OS2XHeight: 1040
OS2FamilyClass: 1024
OS2Vendor: 'it* '
OS2UnicodeRanges: 00000001.00000000.00000000.00000000
MarkAttachClasses: 1
DEI: 91125
LangName: 1033 "" "" "" "" "" "" "" "" "indestructible type*" "Owen Earl" "" "https://indestructibletype.com/Home.html" "https://ewonrael.github.io" "This Font Software is licensed under the SIL Open Font License, Version 1.1. This license is available with a FAQ at: https://scripts.sil.org/OFL" "http://scripts.sil.org/OFL" "" "MFEK Sans"
Encoding: UnicodeBmp
UnicodeInterp: none
NameList: AGL For New Fonts
DisplaySize: -72
AntiAlias: 1
FitToEm: 0
WinInfo: 48 16 4
BeginPrivate: 0
EndPrivate
Grid
-2000 -360 m 0
 4000 -360 l 1024
  Named: "decenders"
-2000 -35 m 0
 4000 -35 l 1024
  Named: "overflow"
-2000 1050 m 0
 4000 1050 l 1024
  Named: "x-height"
-2000 1400 m 0
 4000 1400 l 1024
  Named: "Captial Height"
EndSplineSet
TeXData: 1 0 0 314572 157286 104857 545260 1048576 104857 783286 444596 497025 792723 393216 433062 380633 303038 157286 324010 404750 52429 2506097 1059062 262144
AnchorClass2: "Anchor-3"""  "Anchor-2"""  "Anchor-1"""  "Anchor-0"""  "Anchor-3"""  "Anchor-2"""  "Anchor-1"""  "Anchor-0"""  "Anchor-3"""  "Anchor-2"""  "Anchor-1"""  "Anchor-0""" 

StartChar: ampersand
Encoding: 38 38 0
Width: 1280
VWidth: 1920
Flags: HMW
LayerCount: 2
Fore
SplineSet
1155 648 m 257
 1018.7265625 229.4453125 801.1875 -35 531.208984375 -35 c 256
 395.288085938 -35 263.367913672 21.1068193016 199 118.501953125 c 258
 146 198.696289062 l 258
 92.9752021487 278.928146646 66 351.583984375 66 448 c 257
 236 448 l 257
 236 389.00390625 249.988704778 341.438656656 284.5 286 c 258
 330 212.909179688 l 258
 372.492291785 144.649916752 441.1953125 105 526.639648438 105 c 256
 719.892578125 105 903.890625 335.658203125 1015 648 c 257
 1155 648 l 257
236 448 m 257
 66 448 l 257
 66 657 282 767 527 862 c 256
 687.7265625 924.322265625 825 1032 825 1163 c 257
 960 1183 l 257
 960 1015 865.04296875 877.8203125 637 776 c 256
 383.354492188 662.748046875 236 592 236 448 c 257
1050 0 m 257
 558 734 l 258
 435.645507812 920.32421875 340 1030 340 1163 c 256
 340 1303.00195312 438 1435 645 1435 c 256
 832 1435 950 1353 960 1183 c 257
 825 1163 l 257
 825 1243 762 1300 665 1300 c 256
 568 1300 510 1242.02636719 510 1153 c 256
 510 1034 580.54653275 972.539365358 647 876 c 258
 1250 0 l 257
 1050 0 l 257
EndSplineSet
EndChar

StartChar: period
Encoding: 46 46 1
Width: 540
VWidth: 1920
Flags: HMW
LayerCount: 2
Fore
SplineSet
375 0 m 257
 165 0 l 257
 165 210 l 257
 375 210 l 257
 375 0 l 257
EndSplineSet
EndChar

StartChar: zero
Encoding: 48 48 2
Width: 1150
VWidth: 1920
Flags: HMW
LayerCount: 2
Fore
SplineSet
100 488 m 258
 100 913 l 258
 100 1238.79492188 273.346679688 1435 575 1435 c 256
 876.653320312 1435 1050 1238.79492188 1050 913 c 258
 1050 488 l 258
 1050 161.891601562 876.377929688 -35 575 -35 c 256
 273.622070312 -35 100 161.891601562 100 488 c 258
290 508 m 258
 290 259.787109375 391.172851562 105 575 105 c 256
 758.827148438 105 860 259.787109375 860 508 c 258
 860 893 l 258
 860 1140.875 759.051757812 1295 575 1295 c 256
 390.948242188 1295 290 1140.875 290 893 c 258
 290 508 l 258
EndSplineSet
EndChar

StartChar: one
Encoding: 49 49 3
Width: 600
VWidth: 1920
Flags: HMW
LayerCount: 2
Fore
SplineSet
205 1374 m 257
 268 1374 301 1397 311 1450 c 257
 395 1450 l 257
 395 0 l 257
 205 0 l 257
 205 1374 l 257
EndSplineSet
EndChar

StartChar: two
Encoding: 50 50 4
Width: 1080
VWidth: 1920
Flags: HMW
LayerCount: 2
Fore
SplineSet
80 60 m 258
 80 604.034179688 785 735.631835938 785 1033 c 258
 785 1078 l 258
 785 1188 706 1285 549 1285 c 256
 379 1285 285 1175 285 1002 c 258
 285 902 l 257
 105 902 l 257
 105 1002 l 258
 105 1276 282 1435 559 1435 c 256
 806 1435 965 1303 965 1073 c 258
 965 1028 l 258
 965 632.094726562 300 501 300 180 c 258
 300 170 l 257
 1000 170 l 257
 1000 0 l 257
 80 0 l 257
 80 60 l 258
EndSplineSet
EndChar

StartChar: three
Encoding: 51 51 5
Width: 1100
VWidth: 1920
Flags: HMW
LayerCount: 2
Fore
SplineSet
115 1052 m 258
 115 1286 297 1435 544 1435 c 257
 539 1285 l 257
 389 1285 295 1185 295 1052 c 258
 295 952 l 257
 115 952 l 257
 115 1052 l 258
530 770 m 257
 787 770 1015 672 1015 422 c 258
 1015 347 l 258
 1015 107 827 -35 530 -35 c 257
 540 115 l 257
 707 115 825 222 825 352 c 258
 825 447 l 258
 825 577 707 660 530 660 c 258
 440 660 l 257
 440 810 l 257
 510 810 l 258
 677 810 770 903 770 1023 c 258
 770 1088 l 258
 770 1198 706 1285 539 1285 c 257
 544 1435 l 257
 791 1435 965 1313 965 1083 c 258
 965 1058 l 258
 965 808 767 720 510 720 c 257
 530 770 l 257
80 407 m 257
 270 407 l 257
 270 327 l 258
 270 207 381 115 540 115 c 257
 530 -35 l 257
 278 -35 80 99 80 327 c 258
 80 407 l 257
EndSplineSet
EndChar

StartChar: four
Encoding: 52 52 6
Width: 1045
VWidth: 1920
Flags: HMW
LayerCount: 2
Fore
SplineSet
1010 480 m 257
 1010 330 l 257
 820 330 l 257
 820 0 l 257
 630 0 l 257
 630 330 l 257
 50 330 l 257
 50 500 l 257
 710 1400 l 257
 820 1400 l 257
 820 480 l 257
 1010 480 l 257
640 480 m 257
 640 1060.83300781 l 257
 205 480 l 257
 640 480 l 257
EndSplineSet
EndChar

StartChar: five
Encoding: 53 53 7
Width: 1100
VWidth: 1920
Flags: HMW
LayerCount: 2
Fore
SplineSet
241 1400 m 257
 941 1400 l 257
 941 1325 l 258
 941 1255 911 1250 741 1250 c 258
 386 1250 l 257
 275 653 l 257
 130 653 l 257
 241 1400 l 257
110 368 m 257
 280 368 l 257
 290 205 385 105 535 105 c 256
 684 105 810 205 810 398 c 258
 810 523 l 258
 810 723 699 805 565 805 c 256
 476 805 380 763 320 653 c 257
 240 653 l 257
 271 831 418 955 610 955 c 256
 810 955 1000 790 1000 493 c 258
 1000 428 l 258
 1000 131 805 -35 535 -35 c 256
 298 -35 122 104 110 368 c 257
EndSplineSet
EndChar

StartChar: six
Encoding: 54 54 8
Width: 1229
VWidth: 1920
Flags: HMW
LayerCount: 2
Fore
SplineSet
630 740 m 256
 480 740 310 675 310 492 c 258
 310 422 l 257
 250 522 l 257
 250 786 463 890 670 890 c 256
 927 890 1119 731 1119 457 c 258
 1119 407 l 258
 1119 129 921 -35 629 -35 c 256
 252 -35 125 167 125 527 c 258
 125 843 l 258
 125 1223 293 1435 620 1435 c 256
 917 1435 1064 1266 1064 1082 c 258
 1064 1042 l 257
 894 1042 l 257
 894 1082 l 258
 894 1165 820 1285 640 1285 c 256
 413 1285 310 1138 310 838 c 258
 310 422 l 258
 310 232 432 115 619 115 c 256
 818 115 929 237 929 417 c 258
 929 457 l 258
 929 640 820 740 630 740 c 256
EndSplineSet
EndChar

StartChar: seven
Encoding: 55 55 9
Width: 1015
VWidth: 1920
Flags: HMW
LayerCount: 2
Fore
SplineSet
1015 1400 m 257
 435 0 l 257
 225 0 l 257
 785 1240 l 257
 75 1240 l 257
 75 1400 l 257
 1015 1400 l 257
EndSplineSet
EndChar

StartChar: eight
Encoding: 56 56 10
Width: 1182
VWidth: 1920
Flags: HMW
LayerCount: 2
Fore
SplineSet
591 110 m 256
 770.859323272 110 877 196.100129374 877 342 c 258
 877 427 l 258
 877 574.159239402 771.689270782 659.927734375 591 659.927734375 c 256
 410.310729218 659.927734375 305 574.159239402 305 427 c 258
 305 342 l 258
 305 196.100129374 411.140676728 110 591 110 c 256
591 810 m 256
 741.429032212 810 827 887.231424317 827 1023 c 258
 827 1088 l 258
 827 1214.95949632 739.328916495 1290 591 1290 c 256
 442.671083505 1290 355 1214.95949632 355 1088 c 258
 355 1023 l 258
 355 887.231424317 440.570967788 810 591 810 c 256
622 760 m 257
 902.075490238 760 1067 623.61298968 1067 392 c 258
 1067 347 l 258
 1067 99.7502688302 899.091288054 -35 591 -35 c 256
 282.908711946 -35 115 99.7502688302 115 347 c 258
 115 392 l 258
 115 623.61298968 279.924509762 760 560 760 c 257
 562 720.282226562 l 257
 295.816444076 725.766068556 165 837.048280703 165 1058 c 258
 165 1083 l 258
 165 1304.25899984 323.226324062 1435 591 1435 c 256
 858.773675938 1435 1017 1304.25899984 1017 1083 c 258
 1017 1058 l 258
 1017 837.048280703 886.183555924 725.766068556 620 720.282226562 c 257
 622 760 l 257
EndSplineSet
EndChar

StartChar: nine
Encoding: 57 57 11
Width: 1169
VWidth: 1920
Flags: HMW
LayerCount: 2
Fore
SplineSet
569 660 m 256
 719 660 859 755 859 948 c 258
 859 1018 l 257
 919 918 l 257
 919 644 736 510 529 510 c 256
 292 510 110 669 110 943 c 258
 110 993 l 258
 110 1271 298 1435 570 1435 c 256
 927 1435 1044 1243 1044 913 c 258
 1044 557 l 258
 1044 177 866 -35 559 -35 c 256
 262 -35 135 134 135 318 c 258
 135 358 l 257
 305 358 l 257
 305 318 l 258
 305 235 359 115 539 115 c 256
 746 115 859 262 859 562 c 258
 859 1018 l 258
 859 1168 747 1285 580 1285 c 256
 401 1285 300 1163 300 983 c 258
 300 943 l 258
 300 760 399 660 569 660 c 256
EndSplineSet
EndChar

StartChar: A
Encoding: 65 65 12
Width: 1280
VWidth: 1920
Flags: HMW
LayerCount: 2
Fore
SplineSet
310 570 m 257
 940 570 l 257
 940 420 l 257
 310 420 l 257
 310 570 l 257
624.30859375 1226.3828125 m 257
 253 95 l 258
 229.297391828 22.7778000602 203 -35 143 -35 c 258
 133 -35 l 258
 63 -35 48.2557545238 23.5763928888 73 95 c 258
 487 1290 l 258
 511.75480563 1361.41973262 540 1400 630 1400 c 258
 640 1400 l 258
 730 1400 757.77386236 1361.04258333 783 1290 c 258
 1207 95 l 258
 1232.20907868 23.9508277848 1205 -35 1135 -35 c 258
 1125 -35 l 258
 1065 -35 1031.28159248 23.2142845419 1007 95 c 258
 624.30859375 1226.3828125 l 257
EndSplineSet
EndChar

StartChar: B
Encoding: 66 66 13
Width: 1280
VWidth: 1920
Flags: HMW
LayerCount: 2
Fore
SplineSet
360 790 m 257
 690 790 l 262
 856.809411784 790 945 863 945 983 c 258
 945 1068 l 258
 945 1188 856.993036662 1250 690 1250 c 258
 360 1250 l 257
 360 790 l 257
710 750 m 257
 967 750 1195 652 1195 402 c 258
 1195 347 l 258
 1195 67 966.995593524 -3.14728831004e-14 710 0 c 258
 330 0 l 258
 223 0 170 53 170 160 c 258
 170 1240 l 258
 170 1347 223 1400 330 1400 c 258
 690 1400 l 258
 946.904990758 1400 1145 1313 1145 1063 c 258
 1145 1038 l 258
 1145 788 947 700 690 700 c 257
 710 750 l 257
710 640 m 258
 360 640 l 257
 360 150 l 257
 710 150 l 258
 886.808199852 150 995 222 995 342 c 258
 995 437 l 258
 995 557 886.913284355 640 710 640 c 258
EndSplineSet
EndChar

StartChar: C
Encoding: 67 67 14
Width: 1385
VWidth: 1920
Flags: HMW
LayerCount: 2
Fore
SplineSet
1260 418 m 256
 1206.65429688 165.411132812 1032 -35 695 -35 c 256
 308 -35 100 238 100 618 c 258
 100 783 l 258
 100 1163 308 1435 695 1435 c 256
 1022 1435 1178.8515625 1265.46582031 1230 1063 c 256
 1246.82226562 996.409179688 1207 943 1160 943 c 258
 1150 943 l 258
 1093 943 1077.41894531 997.04296875 1058 1063 c 256
 1018.03125 1198.75585938 882 1295 705 1295 c 256
 448 1295 300 1063 300 793 c 258
 300 608 l 258
 300 338 428 105 705 105 c 256
 922 105 1050.421875 235.4375 1090 418 c 256
 1102.4296875 475.336914062 1123 528 1180 528 c 258
 1190 528 l 258
 1247 528 1272.14257812 475.493164062 1260 418 c 256
EndSplineSet
EndChar

StartChar: D
Encoding: 68 68 15
Width: 1450
VWidth: 1920
Flags: HMW
LayerCount: 2
Fore
SplineSet
705 0 m 258
 330 0 l 258
 223 0 170 63 170 160 c 258
 170 1240 l 258
 170 1347 223 1400 330 1400 c 258
 705 1400 l 258
 1018.99854155 1400 1280 1168.79492188 1280 783 c 258
 1280 618 l 258
 1280 231.891601562 1059.19954713 -4.33769341658e-14 705 0 c 258
665 150 m 258
 919.389464401 150 1080 309.787109375 1080 608 c 258
 1080 793 l 258
 1080 1090.875 919.003861852 1250 665 1250 c 258
 360 1250 l 257
 360 150 l 257
 665 150 l 258
EndSplineSet
EndChar

StartChar: E
Encoding: 69 69 16
Width: 1280
VWidth: 1920
Flags: HMW
LayerCount: 2
Fore
SplineSet
360 790 m 257
 850 790 l 258
 917 790 940 767 940 720 c 258
 940 710 l 258
 940 663 917 640 850 640 c 258
 360 640 l 257
 360 150 l 257
 1120 150 l 258
 1187 150 1210 127 1210 80 c 258
 1210 70 l 258
 1210 23 1187 0 1120 0 c 258
 330 0 l 258
 223 0 170 53 170 160 c 258
 170 1240 l 258
 170 1347 223 1400 330 1400 c 258
 1100 1400 l 258
 1167 1400 1190 1377 1190 1330 c 258
 1190 1320 l 258
 1190 1273 1166.99902344 1250 1100 1250 c 258
 360 1250 l 257
 360 790 l 257
EndSplineSet
EndChar

StartChar: F
Encoding: 70 70 17
Width: 1170
VWidth: 1920
Flags: HMW
LayerCount: 2
Fore
SplineSet
360 790 m 257
 770 790 l 258
 818.518554688 790 850 768.595703125 850 720 c 258
 850 710 l 258
 850 661.479492188 818.595703125 640 770 640 c 258
 360 640 l 257
 360 90 l 258
 360 11.4794921875 328.595703125 -30 270 -30 c 258
 260 -30 l 258
 201.479492188 -30 170 11.404296875 170 90 c 258
 170 1240 l 258
 170 1347 223 1400 330 1400 c 258
 1060 1400 l 258
 1107 1400 1140 1377 1140 1330 c 258
 1140 1320 l 258
 1140 1273 1106.99902344 1250 1060 1250 c 258
 360 1250 l 257
 360 790 l 257
EndSplineSet
EndChar

StartChar: G
Encoding: 71 71 18
Width: 1385
VWidth: 1920
Flags: HMW
LayerCount: 2
Fore
SplineSet
1170 620 m 257
 1150 230 1002 -35 675 -35 c 256
 298 -35 100 238 100 618 c 258
 100 783 l 258
 100 1163 308 1435 695 1435 c 256
 1062 1435 1230 1213 1240 963 c 257
 1080 963 l 257
 1080 1153 922 1295 705 1295 c 256
 448 1295 300 1063 300 793 c 258
 300 608 l 258
 300 338 438 105 715 105 c 256
 952 105 1070 370 1070 660 c 257
 1170 620 l 257
1080 320 m 257
 1070 660 l 257
 1270 660 l 257
 1270 0 l 257
 1160 0 l 257
 1080 320 l 257
EndSplineSet
EndChar

StartChar: H
Encoding: 72 72 19
Width: 1380
VWidth: 1920
Flags: HMW
LayerCount: 2
Fore
SplineSet
1040 1400 m 257
 1230 1400 l 257
 1230 0 l 257
 1040 0 l 257
 1040 640 l 257
 340 640 l 257
 340 0 l 257
 150 0 l 257
 150 1400 l 257
 340 1400 l 257
 340 790 l 257
 1040 790 l 257
 1040 1400 l 257
EndSplineSet
EndChar

StartChar: I
Encoding: 73 73 20
Width: 550
VWidth: 1920
Flags: HMW
LayerCount: 2
Fore
SplineSet
180 1400 m 257
 370 1400 l 257
 370 0 l 257
 180 0 l 257
 180 1400 l 257
EndSplineSet
EndChar

StartChar: J
Encoding: 74 74 21
Width: 1161
VWidth: 1920
Flags: HMW
LayerCount: 2
Fore
SplineSet
803 1400 m 257
 1003 1400 l 257
 1003 538 l 258
 1003 152.423828125 853.649414062 -35 508.575195312 -35 c 256
 212.5703125 -35 53 153.754882812 53 478 c 258
 53 663 l 257
 223 663 l 257
 223 488 l 258
 223 256.828125 322.043945312 125 495.811523438 125 c 256
 700.5859375 125 803 248.626953125 803 508 c 258
 803 1400 l 257
EndSplineSet
EndChar

StartChar: K
Encoding: 75 75 22
Width: 1280
VWidth: 1920
Flags: HMW
LayerCount: 2
Fore
SplineSet
480 820 m 257
 670 850 l 257
 1260 0 l 257
 1040 0 l 257
 480 820 l 257
1040 1400 m 257
 1250 1400 l 257
 270 430 l 257
 210 560 l 257
 1040 1400 l 257
150 1400 m 257
 340 1400 l 257
 340 0 l 257
 150 0 l 257
 150 1400 l 257
EndSplineSet
EndChar

StartChar: L
Encoding: 76 76 23
Width: 1067
VWidth: 1920
Flags: HMW
LayerCount: 2
Fore
SplineSet
150 1400 m 257
 340 1400 l 257
 340 150 l 257
 1000 150 l 257
 1000 0 l 257
 150 0 l 257
 150 1400 l 257
EndSplineSet
EndChar

StartChar: M
Encoding: 77 77 24
Width: 1600
VWidth: 1920
Flags: HMW
LayerCount: 2
Fore
SplineSet
300 1220.40816327 m 257
 300 0 l 257
 150 0 l 257
 150 1400 l 257
 410 1400 l 257
 820 319 l 257
 1220 1400 l 257
 1450 1400 l 257
 1450 0 l 257
 1280 0 l 257
 1280 1167.34693878 l 257
 840 0 l 257
 760 0 l 257
 300 1220.40816327 l 257
EndSplineSet
EndChar

StartChar: N
Encoding: 78 78 25
Width: 1380
VWidth: 1920
Flags: HMW
LayerCount: 2
Fore
SplineSet
1060 1400 m 257
 1230 1400 l 257
 1230 0 l 257
 1120 0 l 257
 320 1150.43457031 l 257
 320 0 l 257
 150 0 l 257
 150 1400 l 257
 360 1400 l 257
 1060 408.878504673 l 257
 1060 1400 l 257
EndSplineSet
EndChar

StartChar: O
Encoding: 79 79 26
Width: 1490
VWidth: 1920
Flags: HMW
LayerCount: 2
Fore
SplineSet
100 618 m 258
 100 783 l 258
 100 1168.79512682 363.346845401 1435 745 1435 c 256
 1126.6531546 1435 1390 1168.79512682 1390 783 c 258
 1390 618 l 258
 1390 231.891434913 1126.3782917 -35 745 -35 c 256
 363.621708298 -35 100 231.891434913 100 618 c 258
300 608 m 258
 300 309.786901998 481.17330296 105 745 105 c 256
 1008.82669704 105 1190 309.786901998 1190 608 c 258
 1190 793 l 258
 1190 1090.87452593 1009.0521196 1295 745 1295 c 256
 480.947880401 1295 300 1090.87452593 300 793 c 258
 300 608 l 258
EndSplineSet
EndChar

StartChar: P
Encoding: 80 80 27
Width: 1280
VWidth: 1920
Flags: HMW
LayerCount: 2
Fore
SplineSet
360 1250 m 257
 360 750 l 257
 700 750 l 258
 867 750 975 818 975 938 c 258
 975 1062 l 258
 975 1182 867 1250 700 1250 c 258
 360 1250 l 257
700 1400 m 258
 987 1400 1175 1302 1175 1032 c 258
 1175 968 l 258
 1175 698 987 600 700 600 c 258
 360 600 l 257
 360 0 l 257
 170 0 l 257
 170 1400 l 257
 700 1400 l 258
EndSplineSet
EndChar

StartChar: Q
Encoding: 81 81 28
Width: 1490
VWidth: 1920
Flags: HMW
LayerCount: 2
Fore
SplineSet
1525 120 m 257
 1525 0 l 257
 1308 -60 1190 88 1190 358 c 257
 1300 588 l 257
 1300 238 1152 -35 725 -35 c 256
 278 -35 140 238 140 588 c 258
 140 813 l 258
 140 1163 288 1435 745 1435 c 256
 1202 1435 1350 1163 1350 813 c 258
 1350 328 l 258
 1350 248 1428 150 1525 120 c 257
1150 558 m 258
 1150 843 l 258
 1150 1113 1022 1295 745 1295 c 256
 468 1295 340 1113 340 843 c 258
 340 558 l 258
 340 288 468 105 745 105 c 256
 1022 105 1150 288 1150 558 c 258
EndSplineSet
EndChar

StartChar: R
Encoding: 82 82 29
Width: 1380
VWidth: 1920
Flags: HMW
LayerCount: 2
Fore
SplineSet
360 1250 m 257
 360 790 l 257
 760 790 l 258
 927 790 1015 858 1015 978 c 258
 1015 1062 l 258
 1015 1182 927 1250 760 1250 c 258
 360 1250 l 257
760 1400 m 258
 1017 1400 1215 1282 1215 1042 c 258
 1215 1018 l 258
 1215 778 1017 680 760 680 c 257
 760 740 l 257
 1017 740 1205 662 1205 422 c 258
 1205 328 l 258
 1205 208 1240 120 1290 50 c 257
 1290 0 l 257
 1090 0 l 257
 1030 100 1015 238 1015 328 c 258
 1015 452 l 258
 1015 572 927 640 760 640 c 258
 360 640 l 257
 360 0 l 257
 170 0 l 257
 170 1400 l 257
 760 1400 l 258
EndSplineSet
EndChar

StartChar: S
Encoding: 83 83 30
Width: 1280
VWidth: 1920
Flags: HMW
LayerCount: 2
Fore
SplineSet
90 508 m 257
 260 508 l 257
 270 262.59765625 423.510742188 115 660.08984375 115 c 256
 868.124023438 115 1010 186.604492188 1010 358 c 256
 1010 521.729492188 829.109375 575.2265625 628 614.35546875 c 256
 325.51953125 673.208007812 140 794.966796875 140 1043 c 256
 140 1273 318 1435 625 1435 c 256
 942 1435 1130 1263 1140 963 c 257
 970 963 l 257
 970 1173 822 1295 635 1295 c 256
 448 1295 320 1223 320 1063 c 256
 320 911.723632812 478.866790398 826.040278731 647.999994079 792.261600569 c 256
 1023.14589291 717.338804189 1200 616.510742188 1200 388 c 256
 1200 120.7265625 1039.34179688 -35 650.27734375 -35 c 256
 342.916015625 -35 110.258993988 122.949617227 90 508 c 257
EndSplineSet
EndChar

StartChar: T
Encoding: 84 84 31
Width: 1170
VWidth: 1920
Flags: HMW
LayerCount: 2
Fore
SplineSet
40 1400 m 257
 1130 1400 l 257
 1130 1250 l 257
 680 1250 l 257
 680 0 l 257
 490 0 l 257
 490 1250 l 257
 40 1250 l 257
 40 1400 l 257
EndSplineSet
EndChar

StartChar: U
Encoding: 85 85 32
Width: 1390
VWidth: 1920
Flags: HMW
LayerCount: 2
Fore
SplineSet
1055 488 m 258
 1055 1400 l 257
 1225 1400 l 257
 1225 498 l 258
 1225 178 1097 -35 700 -35 c 256
 243 -35 165 208 165 588 c 258
 165 1400 l 257
 365 1400 l 257
 365 558 l 258
 365 258 433 105 700 105 c 256
 927 105 1055 228 1055 488 c 258
EndSplineSet
EndChar

StartChar: V
Encoding: 86 86 33
Width: 1280
VWidth: 1920
Flags: HMW
LayerCount: 2
Fore
SplineSet
655.69140625 173.6171875 m 257
 1060 1400 l 257
 1240 1400 l 257
 755 0 l 257
 535 0 l 257
 40 1400 l 257
 240 1400 l 257
 655.69140625 173.6171875 l 257
EndSplineSet
EndChar

StartChar: W
Encoding: 87 87 34
Width: 1810
VWidth: 1920
Flags: HMW
LayerCount: 2
Fore
SplineSet
529.931640625 210.13671875 m 257
 870 1400 l 257
 990 1400 l 257
 1317.70800781 193.888671875 l 257
 1610 1400 l 257
 1790 1400 l 257
 1415 0 l 257
 1195 0 l 257
 913.301757812 1050.9921875 l 257
 625 0 l 257
 410 0 l 257
 45 1400 l 257
 240 1400 l 257
 529.931640625 210.13671875 l 257
EndSplineSet
EndChar

StartChar: X
Encoding: 88 88 35
Width: 1280
VWidth: 1920
Flags: HMW
LayerCount: 2
Fore
SplineSet
1005 1400 m 257
 1200 1400 l 257
 741.688476562 725.092773438 l 257
 1230 0 l 257
 1010 0 l 257
 639.657226562 572.559570312 l 257
 245 0 l 257
 50 0 l 257
 548.865234375 709.234375 l 257
 80 1400 l 257
 300 1400 l 257
 650.897460938 861.767578125 l 257
 1005 1400 l 257
EndSplineSet
EndChar

StartChar: Y
Encoding: 89 89 36
Width: 1280
VWidth: 1920
Flags: HMW
LayerCount: 2
Fore
SplineSet
1065 1400 m 257
 1240 1400 l 257
 735 550 l 257
 735 0 l 257
 545 0 l 257
 545 550 l 257
 40 1400 l 257
 245 1400 l 257
 655 709.901367188 l 257
 1065 1400 l 257
EndSplineSet
EndChar

StartChar: Z
Encoding: 90 90 37
Width: 1170
VWidth: 1920
Flags: HMW
LayerCount: 2
Fore
SplineSet
-30 0 m 257
 856.071289062 1250 l 257
 110 1250 l 257
 110 1400 l 257
 1160 1400 l 257
 273.928710938 150 l 257
 1100 150 l 257
 1100 0 l 257
 -30 0 l 257
EndSplineSet
EndChar

StartChar: a
Encoding: 97 97 38
Width: 1110
VWidth: 1920
Flags: HMW
LayerCount: 2
Fore
SplineSet
268 283 m 258
 268 253 l 258
 268 156 342 95 460 95 c 256
 624 95 778 222 778 398 c 257
 838 328 l 257
 838 125 647 -35 406 -35 c 256
 209 -35 78 68 78 249 c 258
 78 299 l 258
 78 487 221 578 529 615 c 256
 713 637 778 655 778 738 c 257
 818 618 l 257
 818 555 726 527 556 500 c 256
 355 468 268 407 268 283 c 258
778 208 m 258
 778 788 l 258
 778 888 694 955 559 955 c 256
 407 955 308 854 308 713 c 257
 138 713 l 257
 159 953 309 1085 578 1085 c 256
 838 1085 958 971 958 733 c 258
 958 208 l 258
 958 108 982 40 1022 0 c 257
 838 0 l 257
 798 40 778 108 778 208 c 258
EndSplineSet
EndChar

StartChar: b
Encoding: 98 98 39
Width: 1110
VWidth: 1920
Flags: HMW
LayerCount: 2
Fore
SplineSet
95 1450 m 257
 285 1450 l 257
 285 175 l 257
 145 -35 l 257
 95 -35 l 257
 95 1450 l 257
215 633 m 257
 215 923 402 1085 599 1085 c 256
 806 1085 1035 943 1035 603 c 258
 1035 447 l 258
 1035 127 816 -35 609 -35 c 256
 382 -35 185 127 185 417 c 257
 285 437 l 257
 285 227 402 105 559 105 c 256
 706 105 845 207 845 417 c 258
 845 633 l 258
 845 843 706 945 559 945 c 256
 402 945 285 823 285 613 c 257
 215 633 l 257
EndSplineSet
EndChar

StartChar: c
Encoding: 99 99 40
Width: 1000
VWidth: 1920
Flags: HMW
LayerCount: 2
Fore
SplineSet
955 388 m 257
 943 124 777 -35 530 -35 c 256
 250 -35 65 151 65 448 c 258
 65 603 l 258
 65 900 245 1085 525 1085 c 256
 777 1085 934 941 945 663 c 257
 785 663 l 257
 775 853 679 945 520 945 c 256
 366 945 255 833 255 633 c 258
 255 418 l 258
 255 225 376 105 535 105 c 256
 695 105 785 215 795 388 c 257
 955 388 l 257
EndSplineSet
EndChar

StartChar: d
Encoding: 100 100 41
Width: 1110
VWidth: 1920
Flags: HMW
LayerCount: 2
Fore
SplineSet
895 417 m 257
 895 127 706 -35 509 -35 c 256
 302 -35 75 107 75 447 c 258
 75 603 l 258
 75 943 302 1085 509 1085 c 256
 706 1085 895 923 895 633 c 257
 825 613 l 257
 825 823 706 945 549 945 c 256
 402 945 265 843 265 633 c 258
 265 417 l 258
 265 207 402 105 549 105 c 256
 706 105 825 227 825 437 c 257
 895 417 l 257
1015 1450 m 257
 1015 0 l 257
 840 0 l 257
 840 220 l 257
 825 252 l 257
 825 1450 l 257
 1015 1450 l 257
EndSplineSet
EndChar

StartChar: e
Encoding: 101 101 42
Width: 1110
VWidth: 1920
Flags: HMW
LayerCount: 2
Fore
SplineSet
1016 338 m 257
 963 96 796 -35 562 -35 c 256
 293 -35 106 138 106 448 c 258
 106 603 l 258
 106 903 293 1085 570 1085 c 256
 837 1085 992 889 1016 674 c 256
 1024 601 1024 575 1024 485 c 257
 230 485 l 257
 230 605 l 257
 840 605 l 257
 835 832 733 955 570 955 c 256
 413 955 296 843 296 633 c 258
 296 418 l 258
 296 198 403 95 570 95 c 256
 704 95 812 182 846 338 c 257
 1016 338 l 257
EndSplineSet
EndChar

StartChar: f
Encoding: 102 102 43
Width: 620
VWidth: 1920
Flags: HMW
LayerCount: 2
Fore
SplineSet
590 910 m 257
 60 910 l 257
 60 1050 l 257
 590 1050 l 257
 590 910 l 257
180 1188 m 258
 180 1398 293 1470 590 1440 c 257
 590 1310 l 257
 433 1330 365 1298 365 1168 c 258
 365 0 l 257
 180 0 l 257
 180 1188 l 258
EndSplineSet
EndChar

StartChar: g
Encoding: 103 103 44
Width: 1000
VWidth: 1920
Flags: HMW
LayerCount: 2
Fore
SplineSet
955 1260 m 257
 945 1060 725 970 675 970 c 257
 645 1000 l 257
 705 1000 735 1060 765 1260 c 257
 955 1260 l 257
643 140 m 258
 883 140 1005 82 1005 -85 c 256
 1005 -262 803 -360 563 -360 c 258
 338 -360 l 258
 158 -360 5 -292 5 -135 c 256
 5 -18 138 90 298 90 c 257
 328 50 l 257
 238 50 165 2 165 -75 c 256
 165 -172 268 -210 398 -210 c 258
 543 -210 l 258
 733 -210 845 -152 845 -75 c 256
 845 -18 783 0 663 0 c 258
 388 0 l 258
 198 0 126 98 126 195 c 256
 126 302 220 395 410 395 c 257
 390 345 l 257
 330 345 286 302 286 245 c 256
 286 183 338 140 468 140 c 258
 643 140 l 258
725 668 m 258
 725 723 l 258
 725 870.170898438 642.73046875 955 500.727539062 955 c 256
 352.546875 955 255 862.629882812 255 723 c 258
 255 668 l 258
 255 528.012695312 352.802734375 435 500.729492188 435 c 256
 642.5 435 725 520.432617188 725 668 c 258
905 638 m 258
 905 458 757 305 490 305 c 256
 223 305 75 458 75 638 c 258
 75 753 l 258
 75 933 223 1085 490 1085 c 256
 757 1085 905 933 905 753 c 258
 905 638 l 258
EndSplineSet
EndChar

StartChar: h
Encoding: 104 104 45
Width: 1110
VWidth: 1920
Flags: HMW
LayerCount: 2
Fore
SplineSet
125 1450 m 257
 315 1450 l 257
 315 0 l 257
 125 0 l 257
 125 1450 l 257
265 703 m 257
 265 923 433 1085 640 1085 c 256
 847 1085 985 963 985 763 c 258
 985 0 l 257
 795 0 l 257
 795 763 l 258
 795 883 727 955 590 955 c 256
 423 955 315 833 315 623 c 257
 265 703 l 257
EndSplineSet
EndChar

StartChar: i
Encoding: 105 105 46
Width: 445
VWidth: 1920
Flags: HMW
LayerCount: 2
Fore
SplineSet
328 1410 m 257
 328 1210 l 257
 118 1210 l 257
 118 1410 l 257
 328 1410 l 257
318 1050 m 257
 318 0 l 257
 128 0 l 257
 128 1050 l 257
 318 1050 l 257
EndSplineSet
EndChar

StartChar: j
Encoding: 106 106 47
Width: 445
VWidth: 1920
Flags: HMW
LayerCount: 2
Fore
SplineSet
318 -98 m 258
 318 -308 195 -380 -102 -350 c 257
 -102 -220 l 257
 55 -240 128 -208 128 -78 c 258
 128 1050 l 257
 318 1050 l 257
 318 -98 l 258
328 1410 m 257
 328 1210 l 257
 118 1210 l 257
 118 1410 l 257
 328 1410 l 257
EndSplineSet
EndChar

StartChar: k
Encoding: 107 107 48
Width: 1000
VWidth: 1920
Flags: HMW
LayerCount: 2
Fore
SplineSet
190 463 m 257
 740 1050 l 257
 960 1050 l 257
 300 433 l 257
 190 463 l 257
420 653 m 257
 570 713 l 257
 1020 0 l 257
 800 0 l 257
 420 653 l 257
120 1450 m 257
 310 1450 l 257
 310 0 l 257
 120 0 l 257
 120 1450 l 257
EndSplineSet
EndChar

StartChar: l
Encoding: 108 108 49
Width: 445
VWidth: 1920
Flags: HMW
LayerCount: 2
Fore
SplineSet
318 1450 m 257
 318 0 l 257
 128 0 l 257
 128 1450 l 257
 318 1450 l 257
EndSplineSet
EndChar

StartChar: m
Encoding: 109 109 50
Width: 1665
VWidth: 1920
Flags: HMW
LayerCount: 2
Fore
SplineSet
858 703 m 257
 858 923 1035 1085 1222 1085 c 256
 1409 1085 1538 963 1538 763 c 258
 1538 0 l 257
 1348 0 l 257
 1348 763 l 258
 1348 883 1289 955 1172 955 c 256
 1025 955 928 833 928 623 c 257
 858 703 l 257
128 1050 m 257
 308 1050 l 257
 308 852 l 257
 318 825 l 257
 318 0 l 257
 128 0 l 257
 128 1050 l 257
268 703 m 257
 268 923 425 1085 612 1085 c 256
 799 1085 928 963 928 763 c 258
 928 0 l 257
 738 0 l 257
 738 763 l 258
 738 883 679 955 562 955 c 256
 415 955 318 833 318 623 c 257
 268 703 l 257
EndSplineSet
EndChar

StartChar: n
Encoding: 110 110 51
Width: 1110
VWidth: 1920
Flags: HMW
LayerCount: 2
Fore
SplineSet
125 1050 m 257
 305 1050 l 257
 305 837 l 257
 315 810 l 257
 315 0 l 257
 125 0 l 257
 125 1050 l 257
265 703 m 257
 265 923 433 1085 640 1085 c 256
 847 1085 985 963 985 763 c 258
 985 0 l 257
 795 0 l 257
 795 763 l 258
 795 883 727 955 590 955 c 256
 423 955 315 833 315 623 c 257
 265 703 l 257
EndSplineSet
EndChar

StartChar: o
Encoding: 111 111 52
Width: 1110
VWidth: 1920
Flags: HMW
LayerCount: 2
Fore
SplineSet
90 448 m 258
 90 603 l 258
 90 893 278 1085 555 1085 c 256
 832 1085 1020 893 1020 603 c 258
 1020 448 l 258
 1020 158 832 -35 555 -35 c 256
 278 -35 90 158 90 448 c 258
285 418 m 258
 285 228 368 95 555 95 c 256
 742 95 825 228 825 418 c 258
 825 633 l 258
 825 823 742 955 555 955 c 256
 368 955 285 823 285 633 c 258
 285 418 l 258
EndSplineSet
EndChar

StartChar: p
Encoding: 112 112 53
Width: 1110
VWidth: 1920
Flags: HMW
LayerCount: 2
Fore
SplineSet
215 633 m 257
 215 923 422 1085 619 1085 c 256
 826 1085 1035 943 1035 603 c 258
 1035 447 l 258
 1035 107 826 -35 619 -35 c 256
 422 -35 215 127 215 417 c 257
 285 437 l 257
 285 227 422 105 579 105 c 256
 726 105 845 207 845 417 c 258
 845 633 l 258
 845 843 726 945 579 945 c 256
 422 945 285 823 285 613 c 257
 215 633 l 257
95 -360 m 257
 95 1050 l 257
 270 1050 l 257
 270 800 l 257
 285 756 l 257
 285 -360 l 257
 95 -360 l 257
EndSplineSet
EndChar

StartChar: q
Encoding: 113 113 54
Width: 1110
VWidth: 1920
Flags: HMW
LayerCount: 2
Fore
SplineSet
1015 -360 m 257
 825 -360 l 257
 825 875 l 257
 965 1085 l 257
 1015 1085 l 257
 1015 -360 l 257
895 417 m 257
 895 127 688 -35 491 -35 c 256
 284 -35 75 107 75 447 c 258
 75 603 l 258
 75 923 274 1085 481 1085 c 256
 708 1085 925 923 925 633 c 257
 825 613 l 257
 825 823 688 945 531 945 c 256
 384 945 265 843 265 633 c 258
 265 417 l 258
 265 207 384 105 531 105 c 256
 688 105 825 227 825 437 c 257
 895 417 l 257
EndSplineSet
EndChar

StartChar: r
Encoding: 114 114 55
Width: 715
VWidth: 1920
Flags: HMW
LayerCount: 2
Fore
SplineSet
120 1050 m 257
 295 1050 l 257
 295 774 l 257
 310 765 l 257
 310 0 l 257
 120 0 l 257
 120 1050 l 257
270 723 m 257
 270 923 448 1095 665 1075 c 257
 665 915 l 257
 518 915 310 833 310 663 c 257
 270 723 l 257
EndSplineSet
EndChar

StartChar: s
Encoding: 115 115 56
Width: 1000
VWidth: 1920
Flags: HMW
LayerCount: 2
Fore
SplineSet
62 358 m 257
 212 358 l 257
 238.280162407 195.938998489 350.285478267 105 523.759884504 105 c 256
 668.505414366 105 762 168.312529998 762 266.736688537 c 256
 762 354.106965413 688.326642205 407.175111082 487.211855167 463.993018956 c 256
 217.090634428 540.306267029 112 618.181784853 112 778.356487191 c 256
 112 960.676259892 266.895212833 1085 493.695560072 1085 c 256
 731.385908663 1085 887.632581727 948.450620286 897 733 c 257
 738 733 l 257
 728.266601562 869.271484375 638.971679688 950 491.967773438 950 c 256
 364.301757812 950 282 895.34375 282 794.844726562 c 256
 282 716.940429688 331.455078125 683.631835938 536.948242188 622.90234375 c 256
 847.232421875 531.203125 932 458.533642848 932 301.913447603 c 256
 932 89.9927382596 776.804279251 -35 512.842256306 -35 c 256
 236.226582556 -35 78.769598532 102.263622387 62 358 c 257
EndSplineSet
EndChar

StartChar: t
Encoding: 116 116 57
Width: 625
VWidth: 1920
Flags: HMW
LayerCount: 2
Fore
SplineSet
580 910 m 257
 30 910 l 257
 30 1050 l 257
 580 1050 l 257
 580 910 l 257
585 130 m 257
 585 0 l 257
 288 -40 160 42 160 252 c 258
 160 1300 l 257
 345 1300 l 257
 345 272 l 258
 345 142 428 110 585 130 c 257
EndSplineSet
EndChar

StartChar: u
Encoding: 117 117 58
Width: 1110
VWidth: 1920
Flags: HMW
LayerCount: 2
Fore
SplineSet
982 0 m 257
 807 0 l 257
 807 193 l 257
 792 250 l 257
 792 1050 l 257
 982 1050 l 257
 982 0 l 257
842 347 m 257
 842 127 675 -35 468 -35 c 256
 261 -35 122 87 122 287 c 258
 122 1050 l 257
 312 1050 l 257
 312 287 l 258
 312 167 381 95 518 95 c 256
 685 95 792 217 792 427 c 257
 842 347 l 257
EndSplineSet
EndChar

StartChar: v
Encoding: 118 118 59
Width: 1000
VWidth: 1920
Flags: HMW
LayerCount: 2
Fore
SplineSet
510 158 m 257
 812 1050 l 257
 982 1050 l 257
 592 0 l 257
 398 0 l 257
 18 1050 l 257
 208 1050 l 257
 510 158 l 257
EndSplineSet
EndChar

StartChar: w
Encoding: 119 119 60
Width: 1445
VWidth: 1920
Flags: HMW
LayerCount: 2
Fore
SplineSet
1040 208 m 257
 1250 1050 l 257
 1410 1050 l 257
 1110 0 l 257
 945 0 l 257
 725 798 l 257
 510 0 l 257
 335 0 l 257
 35 1050 l 257
 225 1050 l 257
 430 208 l 257
 660 1050 l 257
 815 1050 l 257
 1040 208 l 257
EndSplineSet
EndChar

StartChar: x
Encoding: 120 120 61
Width: 1000
VWidth: 1920
Flags: HMW
LayerCount: 2
Fore
SplineSet
240 0 m 257
 40 0 l 257
 410 535 l 257
 55 1050 l 257
 275 1050 l 257
 513 675 l 257
 740 1050 l 257
 940 1050 l 257
 590 554 l 257
 955 0 l 257
 745 0 l 257
 488 403 l 257
 240 0 l 257
EndSplineSet
EndChar

StartChar: y
Encoding: 121 121 62
Width: 1000
VWidth: 1920
Flags: HMW
LayerCount: 2
Fore
SplineSet
497 208 m 257
 795 1050 l 257
 960 1050 l 257
 528 -111 l 258
 420.438954869 -400.070308789 318 -400 111 -360 c 257
 111 -220 l 257
 268 -270 327 -240 402 -10 c 257
 35 1050 l 257
 225 1050 l 257
 497 208 l 257
EndSplineSet
EndChar

StartChar: z
Encoding: 122 122 63
Width: 1000
VWidth: 1920
Flags: HMW
LayerCount: 2
Fore
SplineSet
52 0 m 257
 689 900 l 257
 122 900 l 257
 122 1050 l 257
 982 1050 l 257
 346 150 l 257
 962 150 l 257
 962 0 l 257
 52 0 l 257
EndSplineSet
EndChar

StartChar: comma
Encoding: 44 44 65
Width: 540
VWidth: 1920
Flags: HMW
LayerCount: 2
Fore
SplineSet
185 -210 m 257
 135 -210 l 257
 245 0 l 257
 165 0 l 257
 165 210 l 257
 375 210 l 257
 375 10 l 257
 185 -210 l 257
EndSplineSet
EndChar

StartChar: exclam
Encoding: 33 33 67
Width: 540
VWidth: 1920
Flags: HMW
LayerCount: 2
Fore
SplineSet
375 0 m 257
 165 0 l 257
 165 200 l 257
 375 200 l 257
 375 0 l 257
175 940 m 257
 175 1450 l 257
 365 1450 l 257
 365 940 l 257
 305 430 l 257
 235 430 l 257
 175 940 l 257
EndSplineSet
EndChar

StartChar: quotesingle
Encoding: 39 39 70
Width: 370
VWidth: 1920
Flags: HMW
LayerCount: 2
Fore
SplineSet
220 930 m 257
 150 930 l 257
 100 1220 l 257
 100 1420 l 257
 270 1420 l 257
 270 1220 l 257
 220 930 l 257
EndSplineSet
EndChar

StartChar: question
Encoding: 63 63 71
Width: 1080
VWidth: 1920
Flags: HMW
LayerCount: 2
Fore
SplineSet
665 0 m 257
 455 0 l 257
 455 200 l 257
 665 200 l 257
 665 0 l 257
610 400 m 257
 500 400 l 257
 450 734.034179688 805 745.631835938 805 1023 c 258
 805 1068 l 258
 805 1188 736 1285 579 1285 c 256
 409 1285 325 1185 325 1052 c 258
 325 952 l 257
 145 952 l 257
 145 1052 l 258
 145 1276 312 1435 589 1435 c 256
 836 1435 1005 1293 1005 1073 c 258
 1005 1048 l 258
 1005 732.094726562 670 722.572265625 610 400 c 257
EndSplineSet
EndChar

StartChar: parenleft
Encoding: 40 40 72
Width: 535
VWidth: 2048
Flags: HMW
LayerCount: 2
Fore
SplineSet
70 838 m 258
 70 1248 213 1570 500 1620 c 257
 500 1530 l 257
 353 1470 245 1258 245 858 c 258
 245 392 l 258
 245 -18 353 -220 500 -280 c 257
 500 -370 l 257
 213 -320 70 2 70 412 c 258
 70 838 l 258
EndSplineSet
EndChar

StartChar: parenright
Encoding: 41 41 73
Width: 535
VWidth: 2048
Flags: HMW
LayerCount: 2
Fore
SplineSet
465 412 m 258
 465 2 322 -320 35 -370 c 257
 35 -280 l 257
 182 -220 290 -8 290 392 c 258
 290 858 l 258
 290 1268 182 1470 35 1530 c 257
 35 1620 l 257
 322 1570 465 1248 465 838 c 258
 465 412 l 258
EndSplineSet
EndChar

StartChar: asterisk
Encoding: 42 42 74
Width: 914
VWidth: 2048
Flags: HMW
LayerCount: 2
Fore
SplineSet
468 986 m 257
 446 1053 l 257
 773 1212 l 257
 843 1224 l 257
 889 1081 l 257
 825 1050 l 257
 468 986 l 257
428 1000 m 257
 485 1041 l 257
 737 779 l 257
 770 717 l 257
 649 628 l 257
 600 679 l 257
 428 1000 l 257
429 1041 m 257
 486 1000 l 257
 314 679 l 257
 265 628 l 257
 144 717 l 257
 177 779 l 257
 429 1041 l 257
468 1053 m 257
 446 986 l 257
 89 1050 l 257
 25 1081 l 257
 71 1224 l 257
 141 1212 l 257
 468 1053 l 257
492 1020 m 257
 422 1020 l 257
 372 1380 l 257
 382 1450 l 257
 532 1450 l 257
 542 1380 l 257
 492 1020 l 257
EndSplineSet
EndChar

StartChar: at
Encoding: 64 64 75
Width: 1990
VWidth: 1920
Flags: HMW
LayerCount: 2
Fore
SplineSet
1265 472 m 257
 1265 182 1118 40 921 40 c 256
 734 40 565 157 565 497 c 258
 565 528 l 258
 565 848 724 985 911 985 c 256
 1118 985 1275 843 1275 553 c 257
 1175 533 l 257
 1175 743 1098 845 961 845 c 256
 834 845 755 763 755 553 c 258
 755 472 l 258
 755 262 834 180 961 180 c 256
 1098 180 1175 282 1175 492 c 257
 1265 472 l 257
1340 -247 m 257
 1280 -309 1152 -360 985 -360 c 256
 428 -360 100 13 100 493 c 258
 100 583 l 258
 100 1093 488 1435 1025 1435 c 256
 1632 1435 1890 1024 1890 633 c 258
 1890 543 l 258
 1890 183 1697 40 1490 40 c 256
 1283 40 1175 185 1175 405 c 258
 1175 775 l 257
 1315 985 l 257
 1365 985 l 257
 1365 445 l 258
 1365 251 1403 180 1510 180 c 256
 1607 180 1710 303 1710 543 c 258
 1710 633 l 258
 1710 973 1472 1295 1025 1295 c 256
 618 1295 290 1013 290 593 c 258
 290 483 l 258
 290 103 548 -220 985 -220 c 256
 1102 -220 1220 -177 1290 -117 c 257
 1340 -247 l 257
EndSplineSet
EndChar

StartChar: dollar
Encoding: 36 36 76
Width: 1110
VWidth: 1920
Flags: HMW
LayerCount: 2
Fore
SplineSet
510 1590 m 257
 590 1590 l 257
 590 -190 l 257
 510 -190 l 257
 510 1590 l 257
60 508 m 257
 230 508 l 257
 240 292.59765625 348.510742188 115 555.08984375 115 c 256
 733.124023438 115 860 196.604492188 860 348 c 256
 860 501.729492188 741.254882812 562.672851562 543 614.35546875 c 256
 240.51953125 693.208007812 110 824.966796875 110 1053 c 256
 110 1303 293 1435 540 1435 c 256
 827 1435 970 1263 980 963 c 257
 820 963 l 257
 820 1173 727 1295 540 1295 c 256
 383 1295 280 1208 280 1068 c 256
 280 926.723632812 393.600605769 834.996889601 563 792.26171875 c 256
 903.348632812 706.400390625 1040 576.510742188 1040 378 c 256
 1040 110.7265625 884.341796875 -35 545.27734375 -35 c 256
 277.916015625 -35 80.2587890625 152.94921875 60 508 c 257
EndSplineSet
EndChar

StartChar: numbersign
Encoding: 35 35 77
Width: 1300
VWidth: 1920
Flags: HMW
LayerCount: 2
Fore
SplineSet
70 540 m 257
 1150 540 l 257
 1150 430 l 257
 70 430 l 257
 70 540 l 257
150 1050 m 257
 1230 1050 l 257
 1230 940 l 257
 150 940 l 257
 150 1050 l 257
940 1400 m 257
 1090 1400 l 257
 760 0 l 257
 610 0 l 257
 940 1400 l 257
520 1400 m 257
 670 1400 l 257
 340 0 l 257
 190 0 l 257
 520 1400 l 257
EndSplineSet
EndChar

StartChar: slash
Encoding: 47 47 78
Width: 840
VWidth: 2048
Flags: HMW
LayerCount: 2
Fore
SplineSet
800 1400 m 257
 175 -100 l 257
 15 -100 l 257
 640 1400 l 257
 800 1400 l 257
EndSplineSet
EndChar

StartChar: percent
Encoding: 37 37 79
Width: 1755
VWidth: 2048
Flags: HMW
LayerCount: 2
Fore
SplineSet
100 1048 m 258
 100 1083 l 258
 100 1273 258 1400 435 1400 c 256
 612 1400 780 1273 780 1083 c 258
 780 1048 l 258
 780 858 612 730 435 730 c 256
 258 730 100 858 100 1048 c 258
275 1028 m 258
 275 918 348 860 435 860 c 256
 522 860 605 918 605 1028 c 258
 605 1103 l 258
 605 1213 522 1270 435 1270 c 256
 348 1270 275 1213 275 1103 c 258
 275 1028 l 258
975 283 m 258
 975 318 l 258
 975 508 1133 635 1310 635 c 256
 1487 635 1655 508 1655 318 c 258
 1655 283 l 258
 1655 93 1487 -35 1310 -35 c 256
 1133 -35 975 93 975 283 c 258
1150 263 m 258
 1150 153 1223 95 1310 95 c 256
 1397 95 1480 153 1480 263 c 258
 1480 338 l 258
 1480 448 1397 505 1310 505 c 256
 1223 505 1150 448 1150 338 c 258
 1150 263 l 258
1385 1400 m 257
 530 0 l 257
 370 0 l 257
 1225 1400 l 257
 1385 1400 l 257
EndSplineSet
EndChar

StartChar: hyphen
Encoding: 45 45 80
Width: 570
VWidth: 1920
Flags: HMW
LayerCount: 2
Fore
SplineSet
40 690 m 257
 530 690 l 257
 530 540 l 257
 40 540 l 257
 40 690 l 257
EndSplineSet
EndChar

StartChar: underscore
Encoding: 95 95 81
Width: 900
VWidth: 1920
Flags: HMW
LayerCount: 2
Fore
SplineSet
0 0 m 257
 900 0 l 257
 900 -150 l 257
 0 -150 l 257
 0 0 l 257
EndSplineSet
EndChar

StartChar: plus
Encoding: 43 43 82
Width: 1040
VWidth: 1920
Flags: HMW
LayerCount: 2
Fore
SplineSet
445 170 m 257
 445 1190 l 257
 595 1190 l 257
 595 170 l 257
 445 170 l 257
995 620 m 257
 45 620 l 257
 45 770 l 257
 995 770 l 257
 995 620 l 257
EndSplineSet
EndChar

StartChar: equal
Encoding: 61 61 83
Width: 1180
VWidth: 1920
Flags: HMW
LayerCount: 2
Fore
SplineSet
1030 610 m 257
 150 610 l 257
 150 760 l 257
 1030 760 l 257
 1030 610 l 257
1030 240 m 257
 150 240 l 257
 150 390 l 257
 1030 390 l 257
 1030 240 l 257
EndSplineSet
EndChar

StartChar: less
Encoding: 60 60 84
Width: 1010
VWidth: 1920
Flags: HMW
LayerCount: 2
Fore
SplineSet
860 80 m 257
 70 550 l 257
 70 650 l 257
 860 1120 l 257
 860 940 l 257
 259.01953125 600 l 257
 860 260 l 257
 860 80 l 257
EndSplineSet
EndChar

StartChar: greater
Encoding: 62 62 85
Width: 1010
VWidth: 1920
Flags: HMW
LayerCount: 2
Fore
SplineSet
150 1120 m 257
 940 650 l 257
 940 550 l 257
 150 80 l 257
 150 260 l 257
 750.98046875 600 l 257
 150 940 l 257
 150 1120 l 257
EndSplineSet
EndChar

StartChar: backslash
Encoding: 92 92 86
Width: 840
VWidth: 2048
Flags: HMW
LayerCount: 2
Fore
SplineSet
40 1400 m 257
 200 1400 l 257
 825 -100 l 257
 665 -100 l 257
 40 1400 l 257
EndSplineSet
EndChar

StartChar: bracketleft
Encoding: 91 91 87
Width: 550
VWidth: 1920
Flags: HMW
LayerCount: 2
Fore
SplineSet
260 1450 m 257
 260 -210 l 257
 500 -210 l 257
 500 -360 l 257
 70 -360 l 257
 70 1600 l 257
 500 1600 l 257
 500 1450 l 257
 260 1450 l 257
EndSplineSet
EndChar

StartChar: braceleft
Encoding: 123 123 88
Width: 575
VWidth: 2048
Flags: HMW
LayerCount: 2
Fore
SplineSet
155 1278 m 258
 155 1508 198 1600 475 1600 c 257
 475 1510 l 257
 368 1510 330 1458 330 1278 c 258
 330 956 l 258
 330 771 302 668 146 620 c 257
 302 572 330 469 330 284 c 258
 330 -38 l 258
 330 -218 368 -270 475 -270 c 257
 475 -360 l 257
 198 -360 155 -268 155 -38 c 258
 155 284 l 258
 155 464 117 526 10 556 c 257
 10 684 l 257
 117 714 155 776 155 956 c 258
 155 1278 l 258
EndSplineSet
EndChar

StartChar: bracketright
Encoding: 93 93 89
Width: 550
VWidth: 1920
Flags: HMW
LayerCount: 2
Fore
SplineSet
290 -210 m 257
 290 1450 l 257
 50 1450 l 257
 50 1600 l 257
 480 1600 l 257
 480 -360 l 257
 50 -360 l 257
 50 -210 l 257
 290 -210 l 257
EndSplineSet
EndChar

StartChar: braceright
Encoding: 125 125 90
Width: 575
VWidth: 2048
Flags: HMW
LayerCount: 2
Fore
SplineSet
420 -38 m 258
 420 -268 377 -360 100 -360 c 257
 100 -270 l 257
 207 -270 245 -218 245 -38 c 258
 245 284 l 258
 245 469 273 572 429 620 c 257
 273 668 245 771 245 956 c 258
 245 1278 l 258
 245 1458 207 1510 100 1510 c 257
 100 1600 l 257
 377 1600 420 1508 420 1278 c 258
 420 956 l 258
 420 776 458 714 565 684 c 257
 565 556 l 257
 458 526 420 464 420 284 c 258
 420 -38 l 258
EndSplineSet
EndChar

StartChar: bar
Encoding: 124 124 91
Width: 415
VWidth: 1920
Flags: HMW
LayerCount: 2
Fore
SplineSet
288 1600 m 257
 288 -360 l 257
 128 -360 l 257
 128 1600 l 257
 288 1600 l 257
EndSplineSet
EndChar

StartChar: asciitilde
Encoding: 126 126 92
Width: 1330
VWidth: 2048
Flags: HMW
LayerCount: 2
Fore
SplineSet
422 659 m 256
 328 659 260 587 260 438 c 257
 100 438 l 257
 100 651 249 809 422 809 c 256
 661 809 757 552 909 552 c 256
 1003 552 1071 624 1071 773 c 257
 1230 773 l 257
 1230 560 1082 402 909 402 c 256
 670 402 574 659 422 659 c 256
EndSplineSet
EndChar

StartChar: asciicircum
Encoding: 94 94 93
Width: 820
VWidth: 1920
Flags: HMW
LayerCount: 2
Fore
SplineSet
410 1191.48144531 m 257
 230 730 l 257
 60 730 l 257
 340 1400 l 257
 480 1400 l 257
 760 730 l 257
 590 730 l 257
 410 1191.48144531 l 257
EndSplineSet
EndChar

StartChar: grave
Encoding: 96 96 94
Width: 666
VWidth: 0
Flags: HMW
LayerCount: 2
Fore
SplineSet
390 1104 m 257
 270 1104 l 257
 -25 1400 l 257
 205 1400 l 257
 390 1104 l 257
EndSplineSet
EndChar
